<svg id="_x33_0" enable-background="new 0 0 64 64" height="512" viewBox="0 0 64 64" width="512" xmlns="http://www.w3.org/2000/svg"><g><g><g><path d="m54 23v5.76c0 1.99-1.12 3.8-2.89 4.69-.73.36-1.53.55-2.35.55h-9.76l-3 5-5-2-5 2-2.76-4.45-4.04.81c-2.07.41-3.92 1.54-5.24 3.19-1.27 1.58-1.96 3.56-1.96 5.59v12.86c0 2.76 2.24 5 5 5h5v-4-2-13c0-.55.45-1 1-1h13 10 3.18c3.7 0 7.22-1.6 9.65-4.38 1.02-1.16 1.81-2.5 2.35-3.93s.82-2.95.82-4.51v-6.18z" fill="#b4dd7f"/></g><g><path d="m31 37-5 2-2.76-4.45 2.76-.55z" fill="#a0d468"/></g><g><path d="m39 34-3 5-5-2 5-3z" fill="#a0d468"/></g><g><path d="m46 58v3c0 .55-.45 1-1 1h-23v-4z" fill="#aab2bd"/></g><g><path d="m46 42v16h-24v-2-13c0-.55.45-1 1-1h13z" fill="#ccd1d9"/></g><g><circle cx="34" cy="50" fill="#ff826e" r="2"/></g><g><path d="m54 15 .47-2.83c.15-.91.63-1.71 1.29-2.27.67-.56 1.52-.9 2.45-.9 2.09 0 3.79 1.7 3.79 3.79v10.21h-8l-.83-.83c-.75-.75-1.17-1.77-1.17-2.83v-2.34c0-1.1.9-2 2-2z" fill="#f0d0b4"/></g><g><path d="m35.33 10.99c-2.42-.08-4.8-.58-7.04-1.48l-.39-.15c-.59-.24-1.23-.36-1.87-.36-2.78 0-5.03 2.25-5.03 5.03v2.97h-1c-.8 0-1.52.31-2.05.81l-.63-2.53c-.21-.85-.32-1.72-.32-2.6 0-2.95 1.2-5.62 3.13-7.55s4.6-3.13 7.55-3.13h11.82c3.04 0 5.5 2.46 5.5 5.5 0 1.52-.62 2.9-1.61 3.89-.65.65-1.47 1.14-2.39 1.4-.48.14-.98.21-1.5.21h-1.01c-1.4 0-2.61-.82-3.16-2.01z" fill="#656d78"/></g><g><path d="m42 17c1.66 0 3 1.34 3 3 0 .83-.34 1.58-.88 2.12s-1.29.88-2.12.88h-1.46c.3-.95.46-1.95.46-3v-3z" fill="#f0d0b4"/></g><g><path d="m21.46 23h-1.46c-.83 0-1.58-.34-2.12-.88s-.88-1.29-.88-2.12c0-.86.36-1.64.95-2.19.53-.5 1.25-.81 2.05-.81h1v3c0 1.05.16 2.05.46 3z" fill="#f0d0b4"/></g><g><path d="m35.03 29.15.97 4.85-5 3-5-3 .97-4.85c1.23.55 2.6.85 4.03.85s2.8-.3 4.03-.85z" fill="#f0d0b4"/></g><g><path d="m41 17v3c0 1.05-.16 2.05-.46 3-.87 2.76-2.89 5-5.51 6.15-1.23.55-2.6.85-4.03.85s-2.8-.3-4.03-.85c-1.14-.5-2.17-1.21-3.04-2.08-1.12-1.12-1.98-2.51-2.47-4.07-.3-.95-.46-1.95-.46-3v-3-2.97c0-2.78 2.25-5.03 5.03-5.03.64 0 1.28.12 1.87.36l.39.15c2.24.9 4.62 1.4 7.04 1.48.55 1.19 1.76 2.01 3.16 2.01h1.01c.52 0 1.02-.07 1.5-.21z" fill="#f0d0b4"/></g><g><path d="m27 22h8c0 2.21-1.79 4-4 4-1.1 0-2.1-.45-2.83-1.17-.72-.73-1.17-1.73-1.17-2.83z" fill="#ff826e"/></g><g><path d="m10.96 31.22-.8 3.98c-.09.46-.5.8-.98.8h-2.36c-.48 0-.89-.34-.98-.8l-.8-3.98c.87.5 1.88.78 2.96.78s2.09-.28 2.96-.78z" fill="#aab2bd"/></g><g><path d="m8 32c-1.08 0-2.09-.28-2.96-.78-1.81-1.03-3.04-2.99-3.04-5.22 0-3.31 2.69-6 6-6s6 2.69 6 6c0 2.23-1.23 4.19-3.04 5.22-.87.5-1.88.78-2.96.78z" fill="#ffeaa7"/></g><g><circle cx="8" cy="26" fill="#fcd770" r="2"/></g></g><g><path d="m27 18c.551 0 1 .448 1 1h2c0-1.654-1.346-3-3-3s-3 1.346-3 3h2c0-.552.449-1 1-1z"/><path d="m35 18c.551 0 1 .448 1 1h2c0-1.654-1.346-3-3-3s-3 1.346-3 3h2c0-.552.449-1 1-1z"/><path d="m36 22v-1h-10v1c0 2.757 2.243 5 5 5s5-2.243 5-5zm-7.829 1h5.657c-.413 1.164-1.525 2-2.829 2s-2.415-.836-2.828-2z"/><path d="m58.21 8c-2.351 0-4.338 1.684-4.725 4.003l-.357 2.141c-1.227.376-2.128 1.507-2.128 2.856v2.343c0 1.336.52 2.592 1.464 3.536l.536.535v5.349c0 1.615-.897 3.067-2.341 3.789-.586.294-1.241.448-1.895.448h-11.944l-.659-3.292c2.303-1.23 4.113-3.256 5.075-5.708h.764c2.206 0 4-1.794 4-4s-1.794-4-4-4v-2.502c2.346-.982 4-3.3 4-5.998 0-3.584-2.916-6.5-6.5-6.5h-11.815c-6.443 0-11.685 5.241-11.685 11.685 0 .955.117 1.909.349 2.835l.509 2.035c-.529.678-.858 1.52-.858 2.445 0 2.206 1.794 4 4 4h.764c.962 2.452 2.771 4.478 5.075 5.708l-.689 3.442-6.148 1.229c-2.292.458-4.36 1.717-5.821 3.542-1.406 1.76-2.181 3.968-2.181 6.221v12.858c0 3.309 2.691 6 6 6h28c1.103 0 2-.897 2-2v-18h2.185c3.983 0 7.773-1.72 10.396-4.718 2.205-2.518 3.419-5.749 3.419-9.097v-16.395c0-2.642-2.148-4.79-4.79-4.79zm-5.21 9c0-.552.449-1 1-1h2c.551 0 1 .448 1 1s-.449 1-1 1h-1v2h1c1.654 0 3-1.346 3-3s-1.346-3-3-3h-.82l.278-1.669c.226-1.351 1.383-2.331 2.752-2.331 1.538 0 2.79 1.252 2.79 2.79v9.21h-6.586l-.535-.535c-.567-.567-.879-1.32-.879-2.122zm-15.766 18-1.653 2.755-2.337-.935 3.033-1.82zm6.766-15c0 1.103-.897 2-2 2h-.191c.12-.65.191-1.316.191-2v-2c1.103 0 2 .897 2 2zm-24 2c-1.103 0-2-.897-2-2s.897-2 2-2v2c0 .684.071 1.35.191 2zm0-7.969v1.969c-.495 0-.964.102-1.402.267l-.309-1.233c-.192-.767-.289-1.557-.289-2.349 0-5.34 4.344-9.685 9.685-9.685h11.815c2.481 0 4.5 2.019 4.5 4.5s-2.019 4.5-4.5 4.5h-1.013c-1.371 0-2.487-1.116-2.487-2.487 0-1.072.684-2.02 1.7-2.358l.616-.205-.632-1.898-.616.206c-1.835.61-3.068 2.32-3.068 4.255 0 .129.027.251.038.377-1.844-.184-3.649-.611-5.379-1.303l-.388-.156c-.716-.286-1.47-.431-2.24-.431-3.325 0-6.031 2.706-6.031 6.031zm2 5.969v-5.969c0-2.222 1.809-4.031 4.031-4.031.515 0 1.019.097 1.496.287l.388.156c2.183.872 4.473 1.365 6.812 1.502.8 1.233 2.183 2.055 3.76 2.055h1.013c.169 0 .334-.013.5-.025v6.025c0 4.963-4.038 9-9 9s-9-4.037-9-9zm9 11c1.142 0 2.244-.176 3.28-.5l.601 3.005-3.881 2.329-3.881-2.329.601-3.005c1.036.324 2.138.5 3.28.5zm-5.183 4.056 2.94 1.764-2.35.94-1.559-2.51zm-2.817 25.944v-2h22v2zm22-4h-22v-14h22zm13.077-20.034c-2.244 2.563-5.485 4.034-8.892 4.034h-26.185c-1.103 0-2 .897-2 2v12h-4v2h4v4h-4c-2.206 0-4-1.794-4-4v-12.858c0-1.8.619-3.565 1.743-4.97 1.167-1.459 2.819-2.465 4.652-2.831l3.358-.672 2.84 4.571 5.318-2.127.089.053.089-.053 5.331 2.132 3.146-5.245h9.198c.962 0 1.927-.228 2.789-.658 2.126-1.063 3.447-3.2 3.447-5.578v-4.764h6v5.185c0 2.863-1.038 5.627-2.923 7.781z"/><path d="m34 53c1.654 0 3-1.346 3-3s-1.346-3-3-3-3 1.346-3 3 1.346 3 3 3zm0-4c.551 0 1 .448 1 1s-.449 1-1 1-1-.448-1-1 .449-1 1-1z"/><path d="m11.852 31.839c1.894-1.254 3.148-3.402 3.148-5.839 0-3.859-3.14-7-7-7s-7 3.141-7 7c0 2.437 1.254 4.585 3.148 5.839l.711 3.554c.186.931 1.011 1.607 1.961 1.607h2.36c.95 0 1.775-.676 1.961-1.607zm-8.852-5.839c0-2.757 2.243-5 5-5s5 2.243 5 5c0 2.414-1.721 4.434-4 4.899v-2.083c1.161-.414 2-1.514 2-2.816 0-1.654-1.346-3-3-3s-3 1.346-3 3c0 1.302.839 2.402 2 2.816v2.083c-2.279-.465-4-2.485-4-4.899zm4 0c0-.552.449-1 1-1s1 .448 1 1-.449 1-1 1-1-.448-1-1zm-.18 9-.44-2.197c.521.124 1.062.197 1.62.197s1.099-.073 1.62-.197l-.44 2.197z"/><path d="m7 13h2v4h-2z"/><path d="m2.79 13.837h2v4.001h-2z" transform="matrix(.924 -.383 .383 .924 -5.771 2.655)"/><path d="m10.209 14.837h4.001v2h-4.001z" transform="matrix(.383 -.924 .924 .383 -7.095 21.054)"/></g></g></svg>