<svg width="1440" height="900" viewBox="0 0 1440 900" fill="none" xmlns="http://www.w3.org/2000/svg">
<g filter="url(#filter0_i)">
<path d="M331 605.5C482.562 580.704 846 523 1006.5 279.106C1062.86 193.464 1028.59 41.6908 1096 0C1221 0.000125885 1440 0 1440 0V900H0C0 900 31.5 654.5 331 605.5Z" fill="#A83420"/>
</g>
<g filter="url(#filter1_d)">
<circle cx="1005.92" cy="541.919" r="264.684" transform="rotate(-0.0510479 1005.92 541.919)" fill="#FFA434"/>
</g>
<g opacity="0.3" filter="url(#filter2_f)">
<ellipse cx="1102" cy="405" rx="129" ry="128" fill="#FFB661"/>
</g>
<mask id="mask0" mask-type="alpha" maskUnits="userSpaceOnUse" x="0" y="0" width="1440" height="900">
<path d="M331 605.5C482.562 580.704 846 523 1006.5 279.106C1167 35.2119 1440 0 1440 0V900H0C0 900 31.5 654.5 331 605.5Z" fill="#842110"/>
</mask>
<g mask="url(#mask0)">
<g opacity="0.32">
<path opacity="0.6" d="M1350.5 416.992H1261.47C1260.47 417.025 1259.49 416.857 1258.56 416.5C1257.63 416.143 1256.79 415.603 1256.08 414.913C1255.36 414.223 1254.8 413.396 1254.41 412.482C1254.02 411.568 1253.82 410.586 1253.82 409.594C1253.82 408.601 1254.02 407.619 1254.41 406.705C1254.8 405.791 1255.36 404.964 1256.08 404.274C1256.79 403.584 1257.63 403.044 1258.56 402.687C1259.49 402.33 1260.47 402.162 1261.47 402.195H1276.85C1275.86 402.227 1274.87 402.06 1273.95 401.702C1273.02 401.345 1272.18 400.805 1271.46 400.115C1270.75 399.425 1270.18 398.598 1269.8 397.684C1269.41 396.771 1269.21 395.788 1269.21 394.796C1269.21 393.803 1269.41 392.821 1269.8 391.907C1270.18 390.993 1270.75 390.167 1271.46 389.476C1272.18 388.786 1273.02 388.246 1273.95 387.889C1274.87 387.532 1275.86 387.364 1276.85 387.397H1265.86C1264.87 387.429 1263.88 387.262 1262.95 386.905C1262.03 386.547 1261.18 386.008 1260.47 385.317C1259.76 384.627 1259.19 383.8 1258.8 382.887C1258.42 381.973 1258.22 380.99 1258.22 379.998C1258.22 379.005 1258.42 378.023 1258.8 377.109C1259.19 376.195 1259.76 375.369 1260.47 374.679C1261.18 373.988 1262.03 373.448 1262.95 373.091C1263.88 372.734 1264.87 372.567 1265.86 372.599H1312.34C1302.02 367.99 1290.01 364.707 1276.04 362.994C1149.31 347.344 1104.07 357.699 1088.11 368.345C1068.42 381.478 1046.44 391.138 1022.98 395.794C944.826 411.302 798.611 429.959 666.047 389.82C600.198 369.876 551.236 403.584 521.891 459.926H1365.95C1364.85 443.55 1361.55 428.428 1355.49 415.193C1354.09 416.358 1352.33 416.994 1350.5 416.992Z" fill="#FEA43B"/>
<path opacity="0.6" d="M1366 460.447L751.819 474.811L684.314 476.389L512.477 480.414C502.085 506.072 495.204 535.076 492.04 565.145H1351.05C1356.64 547.508 1360.79 529.443 1363.45 511.131C1366 493.46 1367.04 476.366 1366 460.447ZM665.305 525.85H649.918C651.917 525.816 653.848 526.574 655.29 527.96C656.731 529.346 657.566 531.245 657.611 533.245C657.611 533.402 657.611 533.552 657.611 533.694C657.531 534.846 657.18 535.963 656.588 536.955C655.996 537.946 655.179 538.784 654.203 539.4C652.929 540.217 651.447 540.65 649.934 540.647H560.895C559.903 540.68 558.915 540.512 557.989 540.155C557.063 539.798 556.219 539.258 555.506 538.568C554.793 537.878 554.226 537.051 553.838 536.137C553.451 535.223 553.252 534.241 553.252 533.249C553.252 532.256 553.451 531.274 553.838 530.36C554.226 529.446 554.793 528.619 555.506 527.929C556.219 527.239 557.063 526.699 557.989 526.342C558.915 525.985 559.903 525.817 560.895 525.85H576.29C575.298 525.882 574.31 525.715 573.384 525.357C572.458 525 571.613 524.46 570.9 523.77C570.187 523.08 569.62 522.253 569.233 521.339C568.846 520.426 568.646 519.443 568.646 518.451C568.646 517.458 568.846 516.476 569.233 515.562C569.62 514.648 570.187 513.822 570.9 513.131C571.613 512.441 572.458 511.901 573.384 511.544C574.31 511.187 575.298 511.019 576.29 511.052H565.298C564.306 511.084 563.318 510.917 562.392 510.56C561.466 510.202 560.622 509.663 559.909 508.972C559.196 508.282 558.629 507.455 558.241 506.542C557.854 505.628 557.655 504.645 557.655 503.653C557.655 502.66 557.854 501.678 558.241 500.764C558.629 499.85 559.196 499.024 559.909 498.334C560.622 497.643 561.466 497.103 562.392 496.746C563.318 496.389 564.306 496.222 565.298 496.254H654.337C655.329 496.222 656.317 496.389 657.243 496.746C658.168 497.103 659.013 497.643 659.726 498.334C660.439 499.024 661.006 499.85 661.393 500.764C661.78 501.678 661.98 502.66 661.98 503.653C661.98 504.645 661.78 505.628 661.393 506.542C661.006 507.455 660.439 508.282 659.726 508.972C659.013 509.663 658.168 510.202 657.243 510.56C656.317 510.917 655.329 511.084 654.337 511.052H665.329C666.601 511.053 667.854 511.361 668.982 511.952C670.187 512.562 671.201 513.491 671.915 514.637C672.628 515.784 673.014 517.104 673.03 518.455C672.98 520.454 672.143 522.352 670.701 523.737C669.258 525.122 667.328 525.881 665.329 525.85H665.305Z" fill="#FEA43B"/>
<path opacity="0.6" d="M1031.95 596.697L1033.11 596.76L1331.48 613.602C1317.11 642.515 1298.84 669.315 1277.17 693.249L1098.24 686.936L1074.53 686.099L1068 685.87L1063.96 685.736L1038.73 684.765L1018.49 684.055L983.624 682.824H982.835L975.639 682.579L949.434 681.593L940.391 681.277H940.146L933.557 681.048L928.428 680.867L914.77 680.385L910.295 680.219H909.917H908.97L903.88 680.038H903.438L892.865 679.659L855.131 678.341H854.642L852.409 678.254L850.294 678.183H849.797L826.125 677.347L813.697 676.913L799.533 676.415L795.375 676.265H794.846L766.55 675.263L758.438 674.979L699.258 672.895L692.488 672.659L689.331 672.548L630.64 670.48L628.904 670.425L619.096 670.07L495.377 665.729C489.657 632.899 488.494 599.436 491.921 566.288L638.981 574.567L646.264 574.977L654.47 575.435L706.288 578.355L891.168 588.741L903.715 589.452L1019.83 596.01L1031.95 596.697Z" fill="#FEA43B"/>
<path opacity="0.6" d="M499.473 685.233C513.345 742.222 542.698 791.493 589.096 815.359C685.513 864.985 902.958 839.391 1065.25 810.016C1149.17 794.816 1222.97 752.908 1276.57 693.867L499.473 685.233Z" fill="#FEA43B"/>
</g>
</g>
<defs>
<filter id="filter0_i" x="0" y="0" width="1440" height="904" filterUnits="userSpaceOnUse" color-interpolation-filters="sRGB">
<feFlood flood-opacity="0" result="BackgroundImageFix"/>
<feBlend mode="normal" in="SourceGraphic" in2="BackgroundImageFix" result="shape"/>
<feColorMatrix in="SourceAlpha" type="matrix" values="0 0 0 0 0 0 0 0 0 0 0 0 0 0 0 0 0 0 127 0" result="hardAlpha"/>
<feOffset dy="4"/>
<feGaussianBlur stdDeviation="12"/>
<feComposite in2="hardAlpha" operator="arithmetic" k2="-1" k3="1"/>
<feColorMatrix type="matrix" values="0 0 0 0 0 0 0 0 0 0 0 0 0 0 0 0 0 0 0.25 0"/>
<feBlend mode="normal" in2="shape" result="effect1_innerShadow"/>
</filter>
<filter id="filter1_d" x="725.236" y="261.235" width="553.368" height="553.368" filterUnits="userSpaceOnUse" color-interpolation-filters="sRGB">
<feFlood flood-opacity="0" result="BackgroundImageFix"/>
<feColorMatrix in="SourceAlpha" type="matrix" values="0 0 0 0 0 0 0 0 0 0 0 0 0 0 0 0 0 0 127 0" result="hardAlpha"/>
<feOffset dx="-4" dy="-4"/>
<feGaussianBlur stdDeviation="6"/>
<feComposite in2="hardAlpha" operator="out"/>
<feColorMatrix type="matrix" values="0 0 0 0 0 0 0 0 0 0 0 0 0 0 0 0 0 0 0.25 0"/>
<feBlend mode="normal" in2="BackgroundImageFix" result="effect1_dropShadow"/>
<feBlend mode="normal" in="SourceGraphic" in2="effect1_dropShadow" result="shape"/>
</filter>
<filter id="filter2_f" x="969" y="273" width="266" height="264" filterUnits="userSpaceOnUse" color-interpolation-filters="sRGB">
<feFlood flood-opacity="0" result="BackgroundImageFix"/>
<feBlend mode="normal" in="SourceGraphic" in2="BackgroundImageFix" result="shape"/>
<feGaussianBlur stdDeviation="2" result="effect1_foregroundBlur"/>
</filter>
</defs>
</svg>
