<svg width="877" height="489" viewBox="0 0 877 489" fill="none" xmlns="http://www.w3.org/2000/svg">
<g opacity="0.32">
<path opacity="0.6" d="M860.504 61.9924H771.465C770.474 62.0248 769.485 61.8574 768.56 61.5002C767.634 61.1429 766.789 60.6031 766.076 59.9129C765.363 59.2226 764.796 58.396 764.409 57.4822C764.022 56.5684 763.822 55.586 763.822 54.5935C763.822 53.601 764.022 52.6186 764.409 51.7048C764.796 50.791 765.363 49.9644 766.076 49.2741C766.789 48.5839 767.634 48.0441 768.56 47.6868C769.485 47.3296 770.474 47.1622 771.465 47.1946H786.852C785.86 47.227 784.872 47.0596 783.946 46.7024C783.021 46.3451 782.176 45.8053 781.463 45.1151C780.75 44.4248 780.183 43.5982 779.796 42.6844C779.409 41.7706 779.209 40.7882 779.209 39.7957C779.209 38.8032 779.409 37.8208 779.796 36.907C780.183 35.9932 780.75 35.1666 781.463 34.4763C782.176 33.7861 783.021 33.2463 783.946 32.889C784.872 32.5318 785.86 32.3644 786.852 32.3968H775.861C774.869 32.4292 773.881 32.2618 772.955 31.9046C772.029 31.5473 771.184 31.0075 770.471 30.3173C769.758 29.627 769.191 28.8004 768.804 27.8866C768.417 26.9728 768.217 25.9904 768.217 24.9979C768.217 24.0054 768.417 23.023 768.804 22.1092C769.191 21.1954 769.758 20.3688 770.471 19.6785C771.184 18.9883 772.029 18.4485 772.955 18.0912C773.881 17.734 774.869 17.5666 775.861 17.599H822.337C812.016 12.99 800.006 9.70682 786.04 7.99422C659.314 -7.65594 614.069 2.69858 598.106 13.3451C578.419 26.4777 556.443 36.1377 532.976 40.7941C454.826 56.3022 308.611 74.9592 176.047 34.8197C110.198 14.8762 61.2364 48.5836 31.8907 104.926H875.954C874.85 88.5495 871.551 73.4281 865.491 60.193C864.091 61.3576 862.326 61.9944 860.504 61.9924Z" fill="#FEA43B"/>
<path opacity="0.6" d="M876.002 105.447L261.819 119.811L194.314 121.389L22.4772 125.414C12.0851 151.072 5.20434 180.076 2.04016 210.145H861.049C866.644 192.508 870.79 174.443 873.445 156.131C876.002 138.46 877.036 121.366 876.002 105.447ZM175.305 170.85H159.918C161.917 170.816 163.848 171.574 165.29 172.96C166.731 174.346 167.566 176.245 167.611 178.245C167.611 178.402 167.611 178.552 167.611 178.694C167.531 179.846 167.18 180.963 166.588 181.955C165.996 182.946 165.179 183.784 164.203 184.4C162.929 185.217 161.447 185.65 159.934 185.647H70.8947C69.9029 185.68 68.9147 185.512 67.9889 185.155C67.0631 184.798 66.2186 184.258 65.5055 183.568C64.7925 182.878 64.2255 182.051 63.8383 181.137C63.4511 180.223 63.2515 179.241 63.2515 178.249C63.2515 177.256 63.4511 176.274 63.8383 175.36C64.2255 174.446 64.7925 173.619 65.5055 172.929C66.2186 172.239 67.0631 171.699 67.9889 171.342C68.9147 170.985 69.9029 170.817 70.8947 170.85H86.2895C85.2977 170.882 84.3095 170.715 83.3837 170.357C82.4579 170 81.6134 169.46 80.9004 168.77C80.1873 168.08 79.6203 167.253 79.2331 166.339C78.8459 165.426 78.6464 164.443 78.6464 163.451C78.6464 162.458 78.8459 161.476 79.2331 160.562C79.6203 159.648 80.1873 158.822 80.9004 158.131C81.6134 157.441 82.4579 156.901 83.3837 156.544C84.3095 156.187 85.2977 156.019 86.2895 156.052H75.2977C74.3059 156.084 73.3177 155.917 72.3919 155.56C71.4661 155.202 70.6216 154.663 69.9086 153.972C69.1955 153.282 68.6286 152.455 68.2413 151.542C67.8541 150.628 67.6546 149.645 67.6546 148.653C67.6546 147.66 67.8541 146.678 68.2413 145.764C68.6286 144.85 69.1955 144.024 69.9086 143.334C70.6216 142.643 71.4661 142.103 72.3919 141.746C73.3177 141.389 74.3059 141.222 75.2977 141.254H164.337C165.329 141.222 166.317 141.389 167.243 141.746C168.168 142.103 169.013 142.643 169.726 143.334C170.439 144.024 171.006 144.85 171.393 145.764C171.78 146.678 171.98 147.66 171.98 148.653C171.98 149.645 171.78 150.628 171.393 151.542C171.006 152.455 170.439 153.282 169.726 153.972C169.013 154.663 168.168 155.202 167.243 155.56C166.317 155.917 165.329 156.084 164.337 156.052H175.329C176.601 156.053 177.854 156.361 178.982 156.952C180.187 157.562 181.201 158.491 181.915 159.637C182.628 160.784 183.014 162.104 183.03 163.455C182.98 165.454 182.143 167.352 180.701 168.737C179.258 170.122 177.328 170.881 175.329 170.85H175.305Z" fill="#FEA43B"/>
<path opacity="0.6" d="M541.955 241.697L543.115 241.76L841.479 258.602C827.11 287.515 808.835 314.315 787.167 338.249L608.245 331.936L584.525 331.099L578 330.87L573.96 330.736L548.725 329.765L528.485 329.055L493.624 327.824H492.835L485.639 327.579L459.434 326.593L450.391 326.277H450.146L443.557 326.048L438.428 325.867L424.77 325.385L420.295 325.219H419.917H418.97L413.88 325.038H413.438L402.865 324.659L365.131 323.341H364.642L362.409 323.254L360.294 323.183H359.797L336.125 322.347L323.697 321.913L309.533 321.415L305.375 321.265H304.846L276.55 320.263L268.438 319.979L209.258 317.895L202.488 317.659L199.331 317.548L140.64 315.48L138.904 315.425L129.096 315.07L5.37709 310.729C-0.343366 277.899 -1.50638 244.436 1.92095 211.288L148.981 219.567L156.264 219.977L164.47 220.435L216.288 223.355L401.168 233.741L413.715 234.452L529.835 241.01L541.955 241.697Z" fill="#FEA43B"/>
<path opacity="0.6" d="M9.4729 330.233C23.3448 387.222 52.6983 436.493 99.0958 460.359C195.513 509.985 412.958 484.391 575.246 455.016C659.172 439.816 732.966 397.908 786.568 338.867L9.4729 330.233Z" fill="#FEA43B"/>
</g>
</svg>
