<svg width="34" height="34" viewBox="0 0 34 34" fill="none" xmlns="http://www.w3.org/2000/svg">
<path fill-rule="evenodd" clip-rule="evenodd" d="M2.83334 8.49992C2.83334 6.99703 3.43037 5.55569 4.49307 4.49298C5.55578 3.43027 6.99712 2.83325 8.50001 2.83325H25.5C27.0029 2.83325 28.4442 3.43027 29.5069 4.49298C30.5697 5.55569 31.1667 6.99703 31.1667 8.49992V25.4999C31.1667 27.0028 30.5697 28.4442 29.5069 29.5069C28.4442 30.5696 27.0029 31.1666 25.5 31.1666H8.50001C6.99712 31.1666 5.55578 30.5696 4.49307 29.5069C3.43037 28.4442 2.83334 27.0028 2.83334 25.4999V8.49992ZM8.50001 5.66659C7.74856 5.66659 7.02789 5.9651 6.49654 6.49645C5.96519 7.0278 5.66668 7.74847 5.66668 8.49992V25.4999C5.66668 26.2514 5.96519 26.972 6.49654 27.5034C7.02789 28.0347 7.74856 28.3333 8.50001 28.3333H17V18.4166H15.5833C15.2076 18.4166 14.8473 18.2673 14.5816 18.0017C14.3159 17.736 14.1667 17.3756 14.1667 16.9999C14.1667 16.6242 14.3159 16.2639 14.5816 15.9982C14.8473 15.7325 15.2076 15.5833 15.5833 15.5833H17V13.4583C17 12.1432 17.5224 10.882 18.4523 9.95218C19.3821 9.02231 20.6433 8.49992 21.9583 8.49992H22.8083C23.1841 8.49992 23.5444 8.64917 23.8101 8.91485C24.0758 9.18053 24.225 9.54086 24.225 9.91659C24.225 10.2923 24.0758 10.6526 23.8101 10.9183C23.5444 11.184 23.1841 11.3333 22.8083 11.3333H21.9583C21.6793 11.3333 21.403 11.3882 21.1451 11.495C20.8873 11.6018 20.6531 11.7583 20.4557 11.9557C20.2584 12.153 20.1019 12.3872 19.9951 12.6451C19.8883 12.9029 19.8333 13.1792 19.8333 13.4583V15.5833H22.8083C23.1841 15.5833 23.5444 15.7325 23.8101 15.9982C24.0758 16.2639 24.225 16.6242 24.225 16.9999C24.225 17.3756 24.0758 17.736 23.8101 18.0017C23.5444 18.2673 23.1841 18.4166 22.8083 18.4166H19.8333V28.3333H25.5C26.2515 28.3333 26.9721 28.0347 27.5035 27.5034C28.0348 26.972 28.3333 26.2514 28.3333 25.4999V8.49992C28.3333 7.74847 28.0348 7.0278 27.5035 6.49645C26.9721 5.9651 26.2515 5.66659 25.5 5.66659H8.50001Z" fill="white"/>
</svg>
