<svg width="105" height="105" viewBox="0 0 105 105" fill="none" xmlns="http://www.w3.org/2000/svg">
<path d="M51.12 104.728C46.896 104.728 43.536 103.816 41.04 101.992C38.64 100.072 37.2 97.2881 36.72 93.6401L35.568 93.2081C32.496 96.3761 29.52 99.0161 26.64 101.128C23.76 103.144 21.456 104.152 19.728 104.152C14.064 104.152 9.36 102.184 5.616 98.2481C1.872 94.2161 0 89.2241 0 83.2721C0 80.2961 0.768 77.7521 2.304 75.6401C3.84 73.4321 5.856 71.9921 8.352 71.3201L36.144 64.8401L36.288 61.3841C36.288 57.2561 35.184 54.0401 32.976 51.7361C30.768 49.4321 27.744 48.2801 23.904 48.2801C21.312 48.2801 18.48 48.9521 15.408 50.2961C12.432 51.5441 9.648 53.1281 7.056 55.0481L5.76 54.4721L3.312 45.8321C8.112 43.1441 13.152 40.6481 18.432 38.3441C23.712 36.0401 27.456 34.8881 29.664 34.8881C37.632 34.8881 43.584 36.7121 47.52 40.3601C51.552 43.9121 53.568 48.6161 53.568 54.4721C53.568 56.5841 53.136 60.9041 52.272 67.4321C51.216 76.7441 50.688 82.3121 50.688 84.1361C50.688 85.9601 51.168 87.4001 52.128 88.4561C53.088 89.5121 54.336 90.0401 55.872 90.0401C57.024 90.0401 58.224 89.8001 59.472 89.3201C60.816 88.7441 61.92 88.1681 62.784 87.5921L64.944 90.6161C63.216 93.6881 61.056 96.6641 58.464 99.5441C55.968 102.328 53.52 104.056 51.12 104.728ZM25.056 90.4721C26.496 90.4721 28.176 90.0881 30.096 89.3201C32.112 88.5521 33.888 87.5441 35.424 86.2961L35.856 72.6161L20.448 76.9361C18.144 77.5121 16.992 79.0961 16.992 81.6881C16.992 84.1841 17.712 86.2961 19.152 88.0241C20.688 89.6561 22.656 90.4721 25.056 90.4721Z" fill="#FFA434"/>
<path d="M70.7614 95.5121C73.5454 95.0321 75.5614 94.1201 76.8094 92.7761C78.1534 91.3361 78.8254 89.2721 78.8254 86.5841V55.4801C78.8254 52.4081 78.3934 50.2961 77.5294 49.1441C76.6654 47.9921 75.0814 47.4161 72.7774 47.4161C72.1054 47.4161 71.4334 47.4641 70.7614 47.5601C70.0894 47.6561 69.6574 47.7521 69.4654 47.8481L70.3294 39.6401C75.7054 38.8721 81.1774 38.0081 86.7454 37.0481C92.3134 35.9921 95.9134 35.2721 97.5454 34.8881L98.8414 37.1921C97.7854 39.3041 96.9214 45.1121 96.2494 54.6161C95.6734 64.0241 95.3854 75.1121 95.3854 87.8801C95.3854 90.1841 95.7214 91.8161 96.3934 92.7761C97.0654 93.7361 98.2174 94.2161 99.8494 94.2161C100.713 94.2161 101.529 94.1681 102.297 94.0721C103.161 93.9761 103.737 93.9281 104.025 93.9281L104.457 94.6481L103.017 103.432C101.961 103.336 99.8494 103.24 96.6814 103.144C93.6094 103.048 90.4414 103 87.1774 103C84.2014 103 80.7934 103.192 76.9534 103.576C73.2094 104.056 70.7614 104.392 69.6094 104.584L70.7614 95.5121ZM85.8814 22.5041C82.7134 22.5041 80.2654 21.5921 78.5374 19.7681C76.8094 17.9441 75.9454 15.4961 75.9454 12.4241C75.9454 8.96806 76.9534 6.18406 78.9694 4.07205C81.0814 1.96005 83.8654 0.904053 87.3214 0.904053C90.3934 0.904053 92.7934 1.86405 94.5214 3.78406C96.2494 5.60806 97.1134 8.05606 97.1134 11.1281C97.1134 14.4881 96.0574 17.2241 93.9454 19.3361C91.9294 21.4481 89.2414 22.5041 85.8814 22.5041Z" fill="#FFA434"/>
</svg>
