<svg width="34" height="34" viewBox="0 0 34 34" fill="none" xmlns="http://www.w3.org/2000/svg">
<path fill-rule="evenodd" clip-rule="evenodd" d="M2.83331 8.49992C2.83331 6.99703 3.43034 5.55569 4.49304 4.49298C5.55575 3.43027 6.99709 2.83325 8.49998 2.83325H25.5C27.0029 2.83325 28.4442 3.43027 29.5069 4.49298C30.5696 5.55569 31.1666 6.99703 31.1666 8.49992V25.4999C31.1666 27.0028 30.5696 28.4442 29.5069 29.5069C28.4442 30.5696 27.0029 31.1666 25.5 31.1666H8.49998C6.99709 31.1666 5.55575 30.5696 4.49304 29.5069C3.43034 28.4442 2.83331 27.0028 2.83331 25.4999V8.49992ZM8.49998 5.66659C7.74853 5.66659 7.02786 5.9651 6.49651 6.49645C5.96516 7.0278 5.66665 7.74847 5.66665 8.49992V25.4999C5.66665 26.2514 5.96516 26.972 6.49651 27.5034C7.02786 28.0347 7.74853 28.3333 8.49998 28.3333H25.5C26.2514 28.3333 26.9721 28.0347 27.5035 27.5034C28.0348 26.972 28.3333 26.2514 28.3333 25.4999V8.49992C28.3333 7.74847 28.0348 7.0278 27.5035 6.49645C26.9721 5.9651 26.2514 5.66659 25.5 5.66659H8.49998ZM17 12.7499C15.8728 12.7499 14.7918 13.1977 13.9948 13.9947C13.1977 14.7917 12.75 15.8727 12.75 16.9999C12.75 18.1271 13.1977 19.2081 13.9948 20.0051C14.7918 20.8022 15.8728 21.2499 17 21.2499C18.1272 21.2499 19.2082 20.8022 20.0052 20.0051C20.8022 19.2081 21.25 18.1271 21.25 16.9999C21.25 15.8727 20.8022 14.7917 20.0052 13.9947C19.2082 13.1977 18.1272 12.7499 17 12.7499ZM9.91665 16.9999C9.91665 15.1213 10.6629 13.3196 11.9913 11.9912C13.3197 10.6629 15.1214 9.91659 17 9.91659C18.8786 9.91659 20.6803 10.6629 22.0087 11.9912C23.337 13.3196 24.0833 15.1213 24.0833 16.9999C24.0833 18.8785 23.337 20.6802 22.0087 22.0086C20.6803 23.337 18.8786 24.0833 17 24.0833C15.1214 24.0833 13.3197 23.337 11.9913 22.0086C10.6629 20.6802 9.91665 18.8785 9.91665 16.9999ZM24.7916 11.3333C25.3552 11.3333 25.8957 11.1094 26.2942 10.7109C26.6928 10.3123 26.9166 9.77184 26.9166 9.20825C26.9166 8.64467 26.6928 8.10417 26.2942 7.70565C25.8957 7.30714 25.3552 7.08325 24.7916 7.08325C24.2281 7.08325 23.6876 7.30714 23.289 7.70565C22.8905 8.10417 22.6666 8.64467 22.6666 9.20825C22.6666 9.77184 22.8905 10.3123 23.289 10.7109C23.6876 11.1094 24.2281 11.3333 24.7916 11.3333Z" fill="white"/>
</svg>
