<svg width="34" height="34" viewBox="0 0 34 34" fill="none" xmlns="http://www.w3.org/2000/svg">
<path fill-rule="evenodd" clip-rule="evenodd" d="M8.5 2.83325C6.9971 2.83325 5.55576 3.43027 4.49306 4.49298C3.43035 5.55569 2.83333 6.99703 2.83333 8.49992V25.4999C2.83333 27.0028 3.43035 28.4442 4.49306 29.5069C5.55576 30.5696 6.9971 31.1666 8.5 31.1666H25.5C27.0029 31.1666 28.4442 30.5696 29.5069 29.5069C30.5696 28.4442 31.1667 27.0028 31.1667 25.4999V8.49992C31.1667 6.99703 30.5696 5.55569 29.5069 4.49298C28.4442 3.43027 27.0029 2.83325 25.5 2.83325H8.5ZM5.66666 8.49992C5.66666 7.74847 5.96517 7.0278 6.49653 6.49645C7.02788 5.9651 7.74855 5.66659 8.5 5.66659H25.5C26.2514 5.66659 26.9721 5.9651 27.5035 6.49645C28.0348 7.0278 28.3333 7.74847 28.3333 8.49992V25.4999C28.3333 26.2514 28.0348 26.972 27.5035 27.5034C26.9721 28.0347 26.2514 28.3333 25.5 28.3333H8.5C7.74855 28.3333 7.02788 28.0347 6.49653 27.5034C5.96517 26.972 5.66666 26.2514 5.66666 25.4999V8.49992ZM12.75 15.5833C12.75 15.2075 12.6007 14.8472 12.3351 14.5815C12.0694 14.3158 11.7091 14.1666 11.3333 14.1666C10.9576 14.1666 10.5973 14.3158 10.3316 14.5815C10.0659 14.8472 9.91666 15.2075 9.91666 15.5833V24.0833C9.91666 24.459 10.0659 24.8193 10.3316 25.085C10.5973 25.3507 10.9576 25.4999 11.3333 25.4999C11.7091 25.4999 12.0694 25.3507 12.3351 25.085C12.6007 24.8193 12.75 24.459 12.75 24.0833V15.5833ZM13.4583 10.6249C13.4583 11.1885 13.2344 11.729 12.8359 12.1275C12.4374 12.526 11.8969 12.7499 11.3333 12.7499C10.7697 12.7499 10.2292 12.526 9.83073 12.1275C9.43221 11.729 9.20833 11.1885 9.20833 10.6249C9.20833 10.0613 9.43221 9.52083 9.83073 9.12232C10.2292 8.7238 10.7697 8.49992 11.3333 8.49992C11.8969 8.49992 12.4374 8.7238 12.8359 9.12232C13.2344 9.52083 13.4583 10.0613 13.4583 10.6249ZM17 14.1666C17.4817 14.1666 17.9067 14.4074 18.1617 14.7729C18.8918 14.375 19.7101 14.1665 20.5417 14.1666C23.6017 14.1666 25.5 16.8951 25.5 19.2255V24.0833C25.5 24.459 25.3507 24.8193 25.0851 25.085C24.8194 25.3507 24.4591 25.4999 24.0833 25.4999C23.7076 25.4999 23.3473 25.3507 23.0816 25.085C22.8159 24.8193 22.6667 24.459 22.6667 24.0833V19.2241C22.6667 18.1361 21.7317 16.9985 20.5417 16.9985C19.7993 16.9985 18.9791 17.4023 18.4167 18.3628V24.0833C18.4167 24.459 18.2674 24.8193 18.0017 25.085C17.7361 25.3507 17.3757 25.4999 17 25.4999C16.6243 25.4999 16.2639 25.3507 15.9983 25.085C15.7326 24.8193 15.5833 24.459 15.5833 24.0833V15.5833C15.5833 15.2075 15.7326 14.8472 15.9983 14.5815C16.2639 14.3158 16.6243 14.1666 17 14.1666Z" fill="white"/>
</svg>
