<svg width="524" height="644" viewBox="0 0 524 644" fill="none" xmlns="http://www.w3.org/2000/svg">
<path d="M120.079 241.71C110.157 241.71 102.264 239.586 96.4014 235.34C90.7638 230.87 87.3813 224.389 86.2538 215.896L83.5479 214.89C76.3318 222.266 69.3413 228.412 62.5763 233.328C55.8113 238.022 50.3993 240.369 46.3403 240.369C33.0358 240.369 21.9863 235.787 13.1918 226.624C4.39725 217.237 0 205.615 0 191.758C0 184.83 1.804 178.908 5.41201 173.991C9.02001 168.85 13.7555 165.498 19.6185 163.933L84.9008 148.847L85.2391 140.802C85.2391 131.191 82.6459 123.704 77.4593 118.34C72.2728 112.977 65.1696 110.295 56.1496 110.295C50.0611 110.295 43.4088 111.859 36.1928 114.988C29.2023 117.893 22.6628 121.581 16.5743 126.051L13.53 124.71L7.77976 104.596C19.0548 98.3377 30.8935 92.5268 43.296 87.1629C55.6986 81.7991 64.4931 79.1171 69.6796 79.1171C88.3961 79.1171 102.377 83.3635 111.623 91.8563C121.094 100.126 125.829 111.077 125.829 124.71C125.829 129.627 124.814 139.684 122.785 154.882C120.304 176.561 119.064 189.524 119.064 193.77C119.064 198.016 120.192 201.369 122.447 203.827C124.702 206.286 127.633 207.515 131.241 207.515C133.947 207.515 136.766 206.956 139.697 205.839C142.854 204.498 145.448 203.157 147.477 201.816L152.551 208.856C148.492 216.008 143.418 222.936 137.33 229.641C131.467 236.122 125.716 240.145 120.079 241.71ZM58.8556 208.521C62.2381 208.521 66.1843 207.627 70.6943 205.839C75.4298 204.051 79.6016 201.704 83.2096 198.799L84.2243 166.951L48.0316 177.008C42.6196 178.349 39.9135 182.036 39.9135 188.071C39.9135 193.882 41.6048 198.799 44.9873 202.821C48.5953 206.621 53.2181 208.521 58.8556 208.521Z" fill="#F4EFDF"/>
<path d="M166.216 220.254C172.755 219.137 177.491 217.013 180.422 213.884C183.579 210.532 185.158 205.727 185.158 199.469V127.057C185.158 119.905 184.143 114.988 182.113 112.306C180.084 109.624 176.363 108.283 170.951 108.283C169.373 108.283 167.794 108.395 166.216 108.618C164.637 108.842 163.622 109.065 163.171 109.289L165.201 90.1801C177.829 88.3922 190.682 86.3807 203.761 84.1458C216.841 81.6873 225.297 80.0111 229.13 79.1171L232.175 84.481C229.694 89.3979 227.665 102.919 226.086 125.045C224.733 146.948 224.057 172.761 224.057 202.486C224.057 207.85 224.846 211.65 226.424 213.884C228.003 216.119 230.709 217.237 234.542 217.237C236.572 217.237 238.489 217.125 240.293 216.902C242.322 216.678 243.675 216.566 244.352 216.566L245.366 218.243L241.984 238.692C239.503 238.469 234.542 238.245 227.101 238.022C219.885 237.798 212.443 237.687 204.776 237.687C197.786 237.687 189.78 238.134 180.76 239.028C171.966 240.145 166.216 240.927 163.51 241.374L166.216 220.254ZM201.732 50.2863C194.29 50.2863 188.54 48.1631 184.481 43.9167C180.422 39.6703 178.393 33.9712 178.393 26.8194C178.393 18.7736 180.76 12.2922 185.496 7.37533C190.457 2.45844 196.996 0 205.114 0C212.33 0 217.968 2.23495 222.027 6.70485C226.086 10.9513 228.116 16.6504 228.116 23.8022C228.116 31.6245 225.635 37.9941 220.674 42.911C215.939 47.8279 209.625 50.2863 201.732 50.2863Z" fill="#F4EFDF"/>
<path d="M48.3698 442.855C40.2518 442.855 32.8103 442.184 26.0453 440.843C19.5058 439.502 14.3193 438.161 10.4858 436.82C6.65226 435.256 4.2845 434.25 3.3825 433.803L1.353 430.451C2.255 424.416 3.04425 417.376 3.72075 409.331C4.62276 401.285 5.29926 393.574 5.75026 386.199L24.354 384.523C24.5795 407.096 34.6143 418.382 54.4583 418.382C60.9978 418.382 66.4098 417.041 70.6943 414.359C74.9788 411.454 77.1211 407.878 77.1211 403.631C77.1211 399.162 74.8661 395.139 70.3561 391.563C65.8461 387.763 56.8261 382.623 43.296 376.142C29.766 369.884 19.9568 363.291 13.8683 356.362C7.77976 349.21 4.73551 340.941 4.73551 331.554C4.73551 321.497 7.66701 312.669 13.53 305.07C19.393 297.248 27.6238 291.214 38.2223 286.967C48.8208 282.497 60.8851 280.262 74.4151 280.262C80.9546 280.262 87.0431 280.709 92.6806 281.603C98.3181 282.497 102.715 283.503 105.872 284.621C109.255 285.515 111.397 286.073 112.299 286.297L113.99 289.649C113.539 292.108 112.525 297.695 110.946 306.411C109.593 314.904 108.466 323.732 107.564 332.895L88.6216 334.236L88.9598 328.202C88.9598 320.38 87.0431 314.681 83.2096 311.105C79.3761 307.305 73.4003 305.405 65.2823 305.405C59.4193 305.405 54.4583 306.858 50.3993 309.764C46.3403 312.446 44.3108 315.91 44.3108 320.156C44.3108 324.403 46.1148 328.314 49.7228 331.89C53.3308 335.466 59.3066 339.265 67.6501 343.288C80.9546 349.546 91.1021 355.133 98.0926 360.05C105.309 364.967 110.27 369.995 112.976 375.136C115.907 380.053 117.373 385.975 117.373 392.904C117.373 402.067 114.329 410.448 108.24 418.047C102.152 425.646 93.8081 431.68 83.2096 436.15C72.6111 440.62 60.9978 442.855 48.3698 442.855Z" fill="#F4EFDF"/>
<path d="M154.311 325.855C154.311 320.044 153.409 315.91 151.605 313.451C149.801 310.769 146.869 309.428 142.81 309.428C140.781 309.428 138.977 309.54 137.398 309.764C135.82 309.987 134.805 310.211 134.354 310.434L136.384 290.99C148.11 289.426 160.287 287.526 172.915 285.291C185.543 282.833 193.773 281.156 197.607 280.262L200.651 285.626C198.171 291.214 196.028 303.506 194.224 322.503C192.42 341.276 191.518 360.72 191.518 380.835C191.518 389.998 193.21 396.815 196.592 401.285C200.2 405.755 205.612 407.99 212.828 407.99C217.338 407.99 221.735 406.984 226.02 404.972C230.53 402.737 235.942 399.497 242.256 395.25V326.19C242.256 319.933 241.241 315.686 239.212 313.451C237.408 311.216 233.574 309.987 227.711 309.764L221.623 310.099L224.329 290.99C236.506 289.426 249.021 287.526 261.875 285.291C274.954 283.056 283.41 281.603 287.243 280.933L290.288 286.297C287.807 291.437 285.665 304.512 283.861 325.52C282.057 346.529 281.155 369.66 281.155 394.915C281.155 399.162 282.282 402.514 284.537 404.972C286.792 407.431 289.724 408.66 293.332 408.66C295.812 408.66 298.18 408.213 300.435 407.319C302.916 406.425 304.945 405.531 306.523 404.637C308.102 403.743 309.117 403.184 309.568 402.961L314.642 409.666C313.74 411.23 311.485 414.471 307.877 419.388C304.269 424.081 299.871 428.886 294.685 433.803C289.498 438.72 284.537 441.737 279.802 442.855C259.281 442.855 247.781 434.25 245.3 417.041L242.594 415.7C234.025 423.522 226.133 430.004 218.917 435.144C211.926 440.061 207.191 442.52 204.71 442.52C187.572 442.52 174.493 438.944 165.473 431.792C156.453 424.64 151.943 414.247 151.943 400.614L154.311 325.855Z" fill="#F4EFDF"/>
<path d="M421.494 420.729C427.132 419.611 431.078 417.6 433.333 414.694C435.814 411.789 437.167 407.543 437.392 401.955L438.407 343.958C438.407 334.125 436.603 326.861 432.995 322.168C429.387 317.251 423.862 314.792 416.421 314.792C407.852 314.792 397.93 319.039 386.654 327.532C384.4 367.761 383.272 392.904 383.272 402.961C383.272 408.548 383.948 412.459 385.302 414.694C386.88 416.929 389.586 418.047 393.42 418.047L402.552 417.712L403.229 419.053L399.846 439.838C397.366 439.614 392.63 439.391 385.64 439.167C378.875 438.944 371.771 438.832 364.33 438.832C357.114 438.832 349.221 439.055 340.652 439.502C332.309 440.173 326.897 440.62 324.416 440.843L327.122 420.058C333.662 419.388 338.172 417.712 340.652 415.03C343.358 412.124 344.711 407.543 344.711 401.285V330.213C344.711 322.391 343.471 317.139 340.991 314.457C338.736 311.552 334.451 310.099 328.137 310.099H323.74L322.387 308.423L324.078 290.99C336.932 289.202 349.56 287.079 361.962 284.621C374.59 282.162 382.708 280.598 386.316 279.927L389.022 283.28C388.571 284.62 387.895 287.638 386.993 292.331C386.091 297.024 385.527 301.718 385.302 306.411L386.654 307.752C393.645 301.718 401.65 295.684 410.67 289.649C419.916 283.391 426.568 280.262 430.627 280.262C446.638 280.262 459.04 284.062 467.835 291.661C476.855 299.259 481.365 309.875 481.365 323.509C481.365 326.861 480.463 338.594 478.659 358.709C476.404 381.505 475.276 396.144 475.276 402.626C475.276 408.437 476.065 412.571 477.644 415.03C479.448 417.488 482.154 418.717 485.762 418.717C488.017 418.717 490.159 418.606 492.189 418.382C494.218 418.159 495.571 418.047 496.248 418.047L496.924 419.388L493.88 439.838C491.174 439.614 486.213 439.391 478.997 439.167C472.006 438.944 464.79 438.832 457.349 438.832C451.937 438.832 444.946 439.167 436.377 439.838C428.034 440.732 422.509 441.29 419.803 441.514L421.494 420.729Z" fill="#F4EFDF"/>
<path d="M48.3698 644C40.2518 644 32.8103 643.329 26.0453 641.989C19.5058 640.648 14.3193 639.307 10.4858 637.966C6.65226 636.401 4.2845 635.395 3.3825 634.948L1.353 631.596C2.255 625.562 3.04425 618.522 3.72075 610.476C4.62276 602.43 5.29926 594.719 5.75026 587.344L24.354 585.668C24.5795 608.241 34.6143 619.527 54.4583 619.527C60.9978 619.527 66.4098 618.186 70.6943 615.504C74.9788 612.599 77.1211 609.023 77.1211 604.777C77.1211 600.307 74.8661 596.284 70.3561 592.708C65.8461 588.909 56.8261 583.768 43.296 577.287C29.766 571.029 19.9568 564.436 13.8683 557.508C7.77976 550.356 4.73551 542.086 4.73551 532.7C4.73551 522.642 7.66701 513.814 13.53 506.216C19.393 498.393 27.6238 492.359 38.2223 488.112C48.8208 483.643 60.8851 481.408 74.4151 481.408C80.9546 481.408 87.0431 481.855 92.6806 482.749C98.3181 483.643 102.715 484.648 105.872 485.766C109.255 486.66 111.397 487.218 112.299 487.442L113.99 490.794C113.539 493.253 112.525 498.84 110.946 507.556C109.593 516.049 108.466 524.877 107.564 534.041L88.6216 535.382L88.9598 529.347C88.9598 521.525 87.0431 515.826 83.2096 512.25C79.3761 508.45 73.4003 506.551 65.2823 506.551C59.4193 506.551 54.4583 508.003 50.3993 510.909C46.3403 513.591 44.3108 517.055 44.3108 521.301C44.3108 525.548 46.1148 529.459 49.7228 533.035C53.3308 536.611 59.3066 540.41 67.6501 544.433C80.9546 550.691 91.1021 556.278 98.0926 561.195C105.309 566.112 110.27 571.141 112.976 576.281C115.907 581.198 117.373 587.121 117.373 594.049C117.373 603.212 114.329 611.593 108.24 619.192C102.152 626.791 93.8081 632.825 83.2096 637.295C72.6111 641.765 60.9978 644 48.3698 644Z" fill="#F4EFDF"/>
<path d="M214.181 644C190.504 644 171.787 637.183 158.032 623.55C144.502 609.694 137.737 590.808 137.737 566.894C137.737 550.803 141.232 536.276 148.222 523.313C155.213 510.35 164.797 500.181 176.974 492.806C189.151 485.207 202.681 481.408 217.564 481.408C255.448 481.408 274.39 500.405 274.39 538.399C274.39 545.104 273.6 551.361 272.022 557.172L267.963 561.195H180.356C180.582 577.51 184.415 590.026 191.857 598.742C199.524 607.235 210.122 611.482 223.652 611.482C235.378 611.482 248.795 608.129 263.904 601.424L266.272 602.765L271.684 619.192C263.34 625.45 253.644 631.149 242.594 636.289C231.77 641.43 222.299 644 214.181 644ZM226.696 540.075C229.402 539.852 231.094 539.293 231.77 538.399C232.672 537.505 233.123 535.493 233.123 532.364C233.123 515.826 226.02 507.556 211.813 507.556C203.019 507.556 195.803 510.574 190.165 516.608C184.753 522.642 181.484 531.359 180.356 542.757L226.696 540.075Z" fill="#F4EFDF"/>
<path d="M354.864 644C338.854 644 327.128 640.759 319.686 634.278C312.245 627.573 308.524 617.069 308.524 602.765V528.006C308.524 520.854 307.284 516.161 304.803 513.926C302.323 511.468 297.474 510.127 290.258 509.903L286.876 507.556L289.244 491.13C297.813 487.107 306.269 482.525 314.612 477.385C322.956 472.021 329.834 467.327 335.246 463.305C340.883 459.282 344.378 456.711 345.732 455.594L355.202 460.287C354.977 461.628 354.413 464.869 353.511 470.009C352.835 475.15 352.158 481.519 351.482 489.118L391.395 488.112L392.748 489.789L389.366 512.25L349.452 511.244C348.099 530.688 347.423 555.049 347.423 584.327C347.423 593.937 349.114 600.865 352.496 605.112C355.879 609.358 361.404 611.482 369.071 611.482C373.13 611.482 377.189 610.811 381.248 609.47C385.532 608.129 388.238 607.235 389.366 606.788L393.763 617.516C392.41 618.857 389.14 621.651 383.954 625.897C378.993 630.143 373.581 634.278 367.718 638.301C362.08 642.1 357.796 644 354.864 644Z" fill="#F4EFDF"/>
<path d="M454.997 644C446.879 644 439.437 643.329 432.672 641.989C426.133 640.648 420.946 639.307 417.113 637.966C413.279 636.401 410.912 635.395 410.01 634.948L407.98 631.596C408.882 625.562 409.671 618.522 410.348 610.476C411.25 602.43 411.926 594.719 412.377 587.344L430.981 585.668C431.207 608.241 441.241 619.527 461.085 619.527C467.625 619.527 473.037 618.186 477.321 615.504C481.606 612.599 483.748 609.023 483.748 604.777C483.748 600.307 481.493 596.284 476.983 592.708C472.473 588.909 463.453 583.768 449.923 577.287C436.393 571.029 426.584 564.436 420.495 557.508C414.407 550.356 411.363 542.086 411.363 532.7C411.363 522.642 414.294 513.814 420.157 506.216C426.02 498.393 434.251 492.359 444.849 488.112C455.448 483.643 467.512 481.408 481.042 481.408C487.582 481.408 493.67 481.855 499.308 482.749C504.945 483.643 509.342 484.648 512.499 485.766C515.882 486.66 518.024 487.218 518.926 487.442L520.617 490.794C520.167 493.253 519.152 498.84 517.573 507.556C516.22 516.049 515.093 524.877 514.191 534.041L495.249 535.382L495.587 529.347C495.587 521.525 493.67 515.826 489.837 512.25C486.003 508.45 480.027 506.551 471.909 506.551C466.046 506.551 461.085 508.003 457.026 510.909C452.967 513.591 450.938 517.055 450.938 521.301C450.938 525.548 452.742 529.459 456.35 533.035C459.958 536.611 465.934 540.41 474.277 544.433C487.582 550.691 497.729 556.278 504.72 561.195C511.936 566.112 516.897 571.141 519.603 576.281C522.534 581.198 524 587.121 524 594.049C524 603.212 520.956 611.593 514.867 619.192C508.779 626.791 500.435 632.825 489.837 637.295C479.238 641.765 467.625 644 454.997 644Z" fill="#F4EFDF"/>
</svg>
