<svg width="34" height="42" viewBox="0 0 34 42" fill="none" xmlns="http://www.w3.org/2000/svg">
<path d="M7.74127 15.652C7.10162 15.652 6.5928 15.5145 6.21483 15.2395C5.85139 14.9501 5.63332 14.5304 5.56063 13.9804L5.38618 13.9153C4.92098 14.3929 4.47031 14.7909 4.03419 15.1093C3.59806 15.4132 3.24916 15.5652 2.98748 15.5652C2.12976 15.5652 1.41742 15.2685 0.85045 14.6751C0.283483 14.0673 0 13.3147 0 12.4174C0 11.9688 0.116301 11.5852 0.348902 11.2668C0.581504 10.934 0.886794 10.7169 1.26477 10.6156L5.47341 9.63869L5.49521 9.11768C5.49521 8.49536 5.32803 8.01053 4.99367 7.66319C4.6593 7.31585 4.20137 7.14218 3.61986 7.14218C3.22735 7.14218 2.79849 7.24349 2.33329 7.4461C1.88262 7.63424 1.46103 7.87304 1.06851 8.16249L0.872256 8.07566L0.501547 6.77313C1.22843 6.3679 1.99165 5.99162 2.79122 5.64428C3.59079 5.29694 4.15776 5.12327 4.49212 5.12327C5.69874 5.12327 6.60007 5.39824 7.19611 5.9482C7.80669 6.48368 8.11198 7.19283 8.11198 8.07566C8.11198 8.39405 8.04657 9.04531 7.91573 10.0294C7.75581 11.4333 7.67586 12.2727 7.67586 12.5477C7.67586 12.8226 7.74854 13.0397 7.89392 13.1989C8.0393 13.3581 8.22828 13.4377 8.46089 13.4377C8.63534 13.4377 8.81706 13.4015 9.00605 13.3292C9.20957 13.2423 9.37675 13.1555 9.50759 13.0687L9.83469 13.5246C9.57301 13.9877 9.24592 14.4363 8.8534 14.8705C8.47542 15.2902 8.10471 15.5507 7.74127 15.652ZM3.79431 13.5028C4.01238 13.5028 4.26679 13.445 4.55754 13.3292C4.86283 13.2134 5.13177 13.0614 5.36438 12.8733L5.4298 10.811L3.09651 11.4622C2.74761 11.5491 2.57316 11.7879 2.57316 12.1786C2.57316 12.5549 2.68219 12.8733 2.90025 13.1338C3.13285 13.3798 3.43087 13.5028 3.79431 13.5028Z" fill="#F4EFDF"/>
<path d="M10.7156 14.2627C11.1372 14.1903 11.4425 14.0528 11.6315 13.8502C11.835 13.6331 11.9368 13.3219 11.9368 12.9167V8.22762C11.9368 7.7645 11.8714 7.4461 11.7405 7.27243C11.6097 7.09876 11.3698 7.01193 11.0209 7.01193C10.9192 7.01193 10.8174 7.01916 10.7156 7.03364C10.6139 7.04811 10.5485 7.06258 10.5194 7.07705L10.6502 5.83965C11.4643 5.72387 12.293 5.59362 13.1361 5.4489C13.9793 5.2897 14.5245 5.18116 14.7716 5.12327L14.9679 5.47061C14.808 5.789 14.6771 6.66459 14.5754 8.09736C14.4881 9.51567 14.4445 11.1872 14.4445 13.1121C14.4445 13.4594 14.4954 13.7055 14.5972 13.8502C14.6989 13.9949 14.8734 14.0673 15.1205 14.0673C15.2514 14.0673 15.3749 14.06 15.4912 14.0456C15.6221 14.0311 15.7093 14.0239 15.7529 14.0239L15.8183 14.1324L15.6003 15.4566C15.4404 15.4422 15.1205 15.4277 14.6408 15.4132C14.1756 15.3987 13.6958 15.3915 13.2016 15.3915C12.7509 15.3915 12.2348 15.4205 11.6533 15.4783C11.0863 15.5507 10.7156 15.6014 10.5412 15.6303L10.7156 14.2627ZM13.0053 3.25631C12.5256 3.25631 12.1549 3.11882 11.8932 2.84385C11.6315 2.56887 11.5007 2.19982 11.5007 1.7367C11.5007 1.21569 11.6533 0.795988 11.9586 0.477593C12.2784 0.159198 12.7 0 13.2234 0C13.6886 0 14.052 0.144725 14.3137 0.434176C14.5754 0.709153 14.7062 1.0782 14.7062 1.54132C14.7062 2.04786 14.5463 2.46033 14.2265 2.77872C13.9212 3.09712 13.5141 3.25631 13.0053 3.25631Z" fill="#F4EFDF"/>
<path d="M3.11832 28.6773C2.59496 28.6773 2.11522 28.6338 1.67909 28.547C1.2575 28.4602 0.923138 28.3733 0.675999 28.2865C0.428859 28.1852 0.276214 28.1201 0.218064 28.0911L0.0872256 27.874C0.145376 27.4833 0.196258 27.0274 0.23987 26.5064C0.298021 25.9854 0.341634 25.4861 0.370709 25.0085L1.57006 24.8999C1.5846 26.3617 2.23152 27.0925 3.51083 27.0925C3.93242 27.0925 4.28132 27.0057 4.55754 26.832C4.83375 26.6439 4.97186 26.4123 4.97186 26.1373C4.97186 25.8479 4.82649 25.5874 4.53573 25.3558C4.24498 25.1098 3.66348 24.7769 2.79122 24.3572C1.91896 23.952 1.28658 23.525 0.894063 23.0764C0.501547 22.6133 0.30529 22.0778 0.30529 21.47C0.30529 20.8187 0.494279 20.247 0.872256 19.755C1.25023 19.2484 1.78086 18.8577 2.46412 18.5827C3.14739 18.2932 3.92515 18.1485 4.79741 18.1485C5.219 18.1485 5.61152 18.1775 5.97496 18.2354C6.3384 18.2932 6.62188 18.3584 6.82541 18.4307C7.04347 18.4886 7.18158 18.5248 7.23973 18.5393L7.34876 18.7564C7.31968 18.9156 7.25427 19.2774 7.1525 19.8418C7.06528 20.3918 6.99259 20.9634 6.93444 21.5568L5.71328 21.6436L5.73509 21.2529C5.73509 20.7463 5.61152 20.3773 5.36438 20.1457C5.11724 19.8997 4.73199 19.7767 4.20864 19.7767C3.83066 19.7767 3.51083 19.8707 3.24915 20.0589C2.98748 20.2326 2.85664 20.4569 2.85664 20.7319C2.85664 21.0068 2.97294 21.2601 3.20554 21.4917C3.43814 21.7232 3.82339 21.9693 4.36128 22.2298C5.219 22.635 5.87319 22.9968 6.32386 23.3152C6.78906 23.6336 7.10889 23.9592 7.28334 24.2921C7.47233 24.6105 7.56682 24.994 7.56682 25.4427C7.56682 26.036 7.37057 26.5787 6.97805 27.0708C6.58554 27.5629 6.04764 27.9536 5.36438 28.2431C4.68111 28.5325 3.93242 28.6773 3.11832 28.6773Z" fill="#F4EFDF"/>
<path d="M9.94815 21.1009C9.94815 20.7246 9.89 20.4569 9.7737 20.2977C9.6574 20.124 9.46841 20.0372 9.20673 20.0372C9.07589 20.0372 8.95959 20.0444 8.85783 20.0589C8.75607 20.0734 8.69065 20.0878 8.66157 20.1023L8.79241 18.8432C9.54837 18.7419 10.3334 18.6189 11.1475 18.4741C11.9616 18.315 12.4922 18.2064 12.7394 18.1485L12.9356 18.4959C12.7757 18.8577 12.6376 19.6537 12.5213 20.8838C12.405 22.0995 12.3469 23.3586 12.3469 24.6611C12.3469 25.2545 12.4559 25.6959 12.674 25.9854C12.9066 26.2748 13.2555 26.4195 13.7207 26.4195C14.0114 26.4195 14.2949 26.3544 14.5711 26.2242C14.8619 26.0794 15.2108 25.8696 15.6178 25.5946V21.1226C15.6178 20.7174 15.5524 20.4424 15.4216 20.2977C15.3053 20.153 15.0581 20.0734 14.6801 20.0589L14.2876 20.0806L14.4621 18.8432C15.2471 18.7419 16.0539 18.6189 16.8826 18.4741C17.7258 18.3294 18.2709 18.2354 18.5181 18.1919L18.7143 18.5393C18.5544 18.8721 18.4163 19.7188 18.3 21.0792C18.1837 22.4396 18.1256 23.9375 18.1256 25.5729C18.1256 25.8479 18.1982 26.065 18.3436 26.2242C18.489 26.3834 18.678 26.463 18.9106 26.463C19.0705 26.463 19.2231 26.434 19.3685 26.3761C19.5284 26.3182 19.6593 26.2604 19.761 26.2025C19.8628 26.1446 19.9282 26.1084 19.9573 26.0939L20.2844 26.5281C20.2262 26.6294 20.0809 26.8393 19.8483 27.1576C19.6157 27.4616 19.3322 27.7727 18.9978 28.0911C18.6634 28.4095 18.3436 28.6049 18.0383 28.6773C16.7154 28.6773 15.974 28.1201 15.8141 27.0057L15.6396 26.9188C15.0872 27.4254 14.5784 27.8451 14.1132 28.178C13.6625 28.4964 13.3572 28.6556 13.1973 28.6556C12.0924 28.6556 11.2493 28.424 10.6678 27.9609C10.0863 27.4978 9.79551 26.8248 9.79551 25.942L9.94815 21.1009Z" fill="#F4EFDF"/>
<path d="M27.173 27.2445C27.5364 27.1721 27.7908 27.0419 27.9362 26.8537C28.0961 26.6656 28.1834 26.3906 28.1979 26.0288L28.2633 22.2732C28.2633 21.6364 28.147 21.166 27.9144 20.8621C27.6818 20.5437 27.3256 20.3845 26.8459 20.3845C26.2935 20.3845 25.6538 20.6595 24.9269 21.2095C24.7816 23.8145 24.7089 25.4427 24.7089 26.0939C24.7089 26.4557 24.7525 26.709 24.8397 26.8537C24.9415 26.9984 25.1159 27.0708 25.3631 27.0708L25.9518 27.0491L25.9955 27.1359L25.7774 28.4819C25.6175 28.4674 25.3122 28.4529 24.8615 28.4385C24.4254 28.424 23.9675 28.4168 23.4877 28.4168C23.0225 28.4168 22.5137 28.4312 21.9613 28.4602C21.4234 28.5036 21.0745 28.5325 20.9146 28.547L21.089 27.2011C21.5106 27.1576 21.8014 27.0491 21.9613 26.8754C22.1357 26.6873 22.2229 26.3906 22.2229 25.9854V21.3831C22.2229 20.8766 22.143 20.5365 21.9831 20.3628C21.8377 20.1747 21.5615 20.0806 21.1544 20.0806H20.8709L20.7837 19.9721L20.8928 18.8432C21.7214 18.7274 22.5355 18.5899 23.3351 18.4307C24.1492 18.2715 24.6725 18.1702 24.9051 18.1268L25.0796 18.3439C25.0505 18.4307 25.0069 18.6261 24.9487 18.93C24.8906 19.234 24.8542 19.5379 24.8397 19.8418L24.9269 19.9286C25.3776 19.5379 25.8937 19.1471 26.4752 18.7564C27.0712 18.3511 27.5001 18.1485 27.7618 18.1485C28.7939 18.1485 29.5935 18.3945 30.1605 18.8866C30.742 19.3787 31.0327 20.0661 31.0327 20.9489C31.0327 21.166 30.9746 21.9258 30.8583 23.2284C30.7129 24.7046 30.6402 25.6525 30.6402 26.0722C30.6402 26.4485 30.6911 26.7162 30.7929 26.8754C30.9092 27.0346 31.0836 27.1142 31.3162 27.1142C31.4616 27.1142 31.5997 27.107 31.7305 27.0925C31.8614 27.078 31.9486 27.0708 31.9922 27.0708L32.0358 27.1576L31.8396 28.4819C31.6651 28.4674 31.3453 28.4529 30.8801 28.4385C30.4294 28.424 29.9642 28.4168 29.4845 28.4168C29.1356 28.4168 28.6849 28.4385 28.1325 28.4819C27.5946 28.5398 27.2384 28.576 27.064 28.5904L27.173 27.2445Z" fill="#F4EFDF"/>
<path d="M3.11832 41.7025C2.59496 41.7025 2.11522 41.6591 1.67909 41.5723C1.2575 41.4854 0.923138 41.3986 0.675999 41.3118C0.428859 41.2104 0.276214 41.1453 0.218064 41.1164L0.0872256 40.8993C0.145376 40.5085 0.196258 40.0527 0.23987 39.5316C0.298021 39.0106 0.341634 38.5113 0.370709 38.0337L1.57006 37.9252C1.5846 39.3869 2.23152 40.1178 3.51083 40.1178C3.93242 40.1178 4.28132 40.0309 4.55754 39.8573C4.83375 39.6691 4.97186 39.4376 4.97186 39.1626C4.97186 38.8731 4.82649 38.6126 4.53573 38.3811C4.24498 38.135 3.66348 37.8022 2.79122 37.3825C1.91896 36.9772 1.28658 36.5503 0.894063 36.1017C0.501547 35.6385 0.30529 35.1031 0.30529 34.4952C0.30529 33.8439 0.494279 33.2723 0.872256 32.7802C1.25023 32.2737 1.78086 31.8829 2.46412 31.6079C3.14739 31.3185 3.92515 31.1738 4.79741 31.1738C5.219 31.1738 5.61152 31.2027 5.97496 31.2606C6.3384 31.3185 6.62188 31.3836 6.82541 31.456C7.04347 31.5139 7.18158 31.5501 7.23973 31.5645L7.34876 31.7816C7.31968 31.9408 7.25427 32.3026 7.1525 32.8671C7.06528 33.417 6.99259 33.9887 6.93444 34.582L5.71328 34.6689L5.73509 34.2781C5.73509 33.7716 5.61152 33.4025 5.36438 33.171C5.11724 32.9249 4.73199 32.8019 4.20864 32.8019C3.83066 32.8019 3.51083 32.896 3.24915 33.0841C2.98748 33.2578 2.85664 33.4821 2.85664 33.7571C2.85664 34.0321 2.97294 34.2854 3.20554 34.5169C3.43814 34.7485 3.82339 34.9945 4.36128 35.255C5.219 35.6602 5.87319 36.0221 6.32386 36.3405C6.78906 36.6588 7.10889 36.9845 7.28334 37.3173C7.47233 37.6357 7.56682 38.0193 7.56682 38.4679C7.56682 39.0613 7.37057 39.604 6.97805 40.0961C6.58554 40.5881 6.04764 40.9789 5.36438 41.2683C4.68111 41.5578 3.93242 41.7025 3.11832 41.7025Z" fill="#F4EFDF"/>
<path d="M13.8079 41.7025C12.2814 41.7025 11.0748 41.2611 10.188 40.3783C9.31577 39.481 8.87964 38.2581 8.87964 36.7095C8.87964 35.6675 9.10497 34.7268 9.55564 33.8874C10.0063 33.048 10.6241 32.3895 11.4092 31.9119C12.1942 31.4198 13.0665 31.1738 14.026 31.1738C16.4683 31.1738 17.6894 32.4039 17.6894 34.8643C17.6894 35.2984 17.6385 35.7037 17.5368 36.0799L17.2751 36.3405H11.6272C11.6418 37.3969 11.8889 38.2074 12.3687 38.7718C12.8629 39.3218 13.5462 39.5968 14.4185 39.5968C15.1744 39.5968 16.0394 39.3797 17.0134 38.9455L17.1661 39.0323L17.515 40.0961C16.9771 40.5013 16.352 40.8703 15.6396 41.2032C14.9418 41.5361 14.3312 41.7025 13.8079 41.7025ZM14.6147 34.9728C14.7892 34.9583 14.8982 34.9221 14.9418 34.8643C15 34.8064 15.029 34.6761 15.029 34.4735C15.029 33.4025 14.5711 32.8671 13.6552 32.8671C13.0883 32.8671 12.6231 33.0624 12.2596 33.4532C11.9107 33.8439 11.6999 34.4084 11.6272 35.1465L14.6147 34.9728Z" fill="#F4EFDF"/>
<path d="M22.8775 41.7025C21.8453 41.7025 21.0893 41.4927 20.6096 41.073C20.1299 40.6388 19.89 39.9586 19.89 39.0323V34.1913C19.89 33.7282 19.81 33.4242 19.6501 33.2795C19.4902 33.1203 19.1777 33.0335 18.7125 33.019L18.4944 32.8671L18.647 31.8033C19.1995 31.5428 19.7446 31.2461 20.2825 30.9133C20.8204 30.5659 21.2638 30.262 21.6127 30.0015C21.9761 29.741 22.2015 29.5746 22.2887 29.5022L22.8993 29.8061C22.8847 29.893 22.8484 30.1028 22.7903 30.4357C22.7466 30.7685 22.703 31.181 22.6594 31.6731L25.2326 31.6079L25.3198 31.7165L25.1017 33.171L22.5286 33.1058C22.4413 34.365 22.3977 35.9425 22.3977 37.8384C22.3977 38.4607 22.5068 38.9093 22.7248 39.1843C22.9429 39.4593 23.2991 39.5968 23.7933 39.5968C24.055 39.5968 24.3167 39.5533 24.5784 39.4665C24.8546 39.3797 25.029 39.3218 25.1017 39.2928L25.3852 39.9875C25.298 40.0744 25.0872 40.2553 24.7528 40.5302C24.433 40.8052 24.0841 41.073 23.7061 41.3335C23.3427 41.5795 23.0665 41.7025 22.8775 41.7025Z" fill="#F4EFDF"/>
<path d="M29.3329 41.7025C28.8095 41.7025 28.3298 41.6591 27.8936 41.5723C27.472 41.4854 27.1377 41.3986 26.8905 41.3118C26.6434 41.2104 26.4907 41.1453 26.4326 41.1164L26.3018 40.8993C26.3599 40.5085 26.4108 40.0527 26.4544 39.5316C26.5126 39.0106 26.5562 38.5113 26.5852 38.0337L27.7846 37.9252C27.7991 39.3869 28.4461 40.1178 29.7254 40.1178C30.147 40.1178 30.4959 40.0309 30.7721 39.8573C31.0483 39.6691 31.1864 39.4376 31.1864 39.1626C31.1864 38.8731 31.041 38.6126 30.7503 38.3811C30.4595 38.135 29.878 37.8022 29.0058 37.3825C28.1335 36.9772 27.5011 36.5503 27.1086 36.1017C26.7161 35.6385 26.5198 35.1031 26.5198 34.4952C26.5198 33.8439 26.7088 33.2723 27.0868 32.7802C27.4648 32.2737 27.9954 31.8829 28.6787 31.6079C29.3619 31.3185 30.1397 31.1738 31.0119 31.1738C31.4335 31.1738 31.8261 31.2027 32.1895 31.2606C32.5529 31.3185 32.8364 31.3836 33.0399 31.456C33.258 31.5139 33.3961 31.5501 33.4543 31.5645L33.5633 31.7816C33.5342 31.9408 33.4688 32.3026 33.367 32.8671C33.2798 33.417 33.2071 33.9887 33.149 34.582L31.9278 34.6689L31.9496 34.2781C31.9496 33.7716 31.826 33.4025 31.5789 33.171C31.3318 32.9249 30.9465 32.8019 30.4232 32.8019C30.0452 32.8019 29.7254 32.896 29.4637 33.0841C29.202 33.2578 29.0712 33.4821 29.0712 33.7571C29.0712 34.0321 29.1875 34.2854 29.4201 34.5169C29.6527 34.7485 30.0379 34.9945 30.5758 35.255C31.4335 35.6602 32.0877 36.0221 32.5384 36.3405C33.0036 36.6588 33.3234 36.9845 33.4979 37.3173C33.6869 37.6357 33.7814 38.0193 33.7814 38.4679C33.7814 39.0613 33.5851 39.604 33.1926 40.0961C32.8001 40.5881 32.2622 40.9789 31.5789 41.2683C30.8956 41.5578 30.147 41.7025 29.3329 41.7025Z" fill="#F4EFDF"/>
</svg>
