<svg width="34" height="34" viewBox="0 0 34 34" fill="none" xmlns="http://www.w3.org/2000/svg">
<path fill-rule="evenodd" clip-rule="evenodd" d="M21.036 8.01544C20.3889 8.01517 19.7497 8.15859 19.1646 8.43536C18.5796 8.71213 18.0633 9.11533 17.6531 9.61587C17.2428 10.1164 16.9488 10.7018 16.7922 11.3298C16.6357 11.9577 16.6205 12.6126 16.7478 13.2472C16.7916 13.467 16.7827 13.6942 16.7216 13.9099C16.6606 14.1256 16.5492 14.3238 16.3967 14.4881C16.2441 14.6524 16.0548 14.7781 15.8442 14.855C15.6336 14.9318 15.4077 14.9576 15.1852 14.9302C12.139 14.556 9.26741 13.3038 6.92038 11.3262C6.9643 12.179 7.26038 13.0857 7.90213 14.0349L8.86405 15.4572L7.28446 16.1301L6.97988 16.2604C7.20655 16.5197 7.47855 16.7846 7.78313 17.0467C8.1903 17.3952 8.62105 17.7152 9.0723 18.0044L9.08788 18.0143H9.0893L11.2823 19.3445L8.9873 20.492C8.87396 20.5487 8.76063 20.5997 8.6473 20.645C9.14078 21.0551 9.68442 21.4007 10.2651 21.6735L12.2343 22.6043L10.5853 24.0266C9.68571 24.8029 8.78046 25.3824 7.60605 25.6884C9.40725 26.6478 11.4175 27.1475 13.4583 27.1433C20.2668 27.1433 25.7493 21.7104 25.7493 15.0534V14.3168L26.3514 13.8932C27.292 13.233 27.9565 12.3405 28.4325 11.3191H25.3725L24.9871 10.5116C24.6323 9.76455 24.0729 9.13347 23.3737 8.69163C22.6746 8.24979 21.8645 8.01532 21.0375 8.01544H21.036ZM5.05605 18.3571C4.92236 18.5102 4.82319 18.6903 4.76526 18.8851C4.70732 19.0799 4.69199 19.2849 4.7203 19.4862C4.88038 20.6209 5.55896 21.5984 6.3098 22.345C6.5138 22.5476 6.73196 22.7417 6.96146 22.9273L6.85521 22.9556C6.1738 23.1256 5.25438 23.161 3.72296 23.0123C3.43376 22.9839 3.14283 23.0451 2.88962 23.1877C2.6364 23.3302 2.43314 23.5472 2.30741 23.8092C2.18168 24.0712 2.13955 24.3655 2.18674 24.6522C2.23393 24.9389 2.36816 25.2042 2.57121 25.4121C3.98897 26.8612 5.68263 28.0117 7.55224 28.7957C9.42186 29.5796 11.4296 29.9812 13.4569 29.9766C21.5503 29.9766 28.1888 23.6923 28.5642 15.7618C30.3917 14.2275 31.3055 12.1493 31.7985 10.2609C31.8533 10.0513 31.8593 9.83188 31.816 9.6196C31.7728 9.40732 31.6814 9.20779 31.549 9.03635C31.4165 8.86491 31.2465 8.72612 31.052 8.63068C30.8576 8.53523 30.6438 8.48565 30.4271 8.48577H27.0937C26.2783 7.21973 25.0868 6.24098 23.6865 5.68705C22.2862 5.13312 20.7475 5.03186 19.2867 5.3975C17.8259 5.76314 16.5163 6.57729 15.542 7.72555C14.5678 8.87382 13.9778 10.2985 13.855 11.7994C11.2436 11.1196 8.90702 9.64716 7.16688 7.58477C7.01277 7.40256 6.81513 7.26223 6.59231 7.17681C6.36948 7.09139 6.12868 7.06365 5.89227 7.09615C5.65585 7.12865 5.43147 7.22035 5.23996 7.36273C5.04845 7.50511 4.89602 7.69357 4.7968 7.9106C3.9383 9.78344 3.77396 11.9424 4.73163 14.1383L4.40013 14.2799C4.0829 14.4151 3.82587 14.6613 3.67721 14.9725C3.52855 15.2836 3.49848 15.6383 3.59263 15.97C3.85613 16.8937 4.4483 17.7097 5.05463 18.3571H5.05605Z" fill="white"/>
</svg>
